<svg xmlns="http://www.w3.org/2000/svg" id="Camada_1" viewBox="0 0 200 105">
  <style>
    .st1{fill:#0d7466}
  </style>
  <path fill="#6fbb84" d="M66.1 45.8a16.1 16.1 0 0 1 12 11.6c.5 2.1 2.7 3.3 4.7 2.7 2.1-.5 3.3-2.7 2.7-4.7-.5-1.8-1.2-3.6-2.1-5.2a16.2 16.2 0 0 1 27.4 15c-2 8.7-10.8 14.2-19.5 12.2C85 75.9 80.1 70.9 79 64.5a3.86 3.86 0 1 0-7.6 1.4 25 25 0 0 0 2.5 7.1c-3.9 4-9.7 5.8-15.3 4.5a16.2 16.2 0 0 1-12-19.5 16.39 16.39 0 0 1 19.5-12.2m12.7 33.4c3 2.8 6.7 4.9 10.9 5.8a23.98 23.98 0 1 0-10.9-40.9 24 24 0 0 0-39.7 12.1C36.1 69.1 44.1 82 57 85a24.49 24.49 0 0 0 21.8-5.8m48.1 20.8V84.2c2.1.8 4.4 1.4 6.8 1.4 13.2 0 23.9-10.7 23.9-24a23.9 23.9 0 0 0-23.9-23.9 24 24 0 0 0-14.6 4.9c-1.7 1.3-2 3.7-.7 5.4s3.7 2 5.4.7c2.8-2.2 6.3-3.3 9.9-3.3 9 0 16.2 7.3 16.2 16.2 0 9-7.3 16.3-16.2 16.3-2.2 0-4.6-1-6.8-2.2v-1.4c0-2.1-1.7-3.8-3.8-3.8-2.1 0-3.9 1.7-3.9 3.8V100c0 2.1 1.7 3.9 3.9 3.9 2 0 3.8-1.8 3.8-3.9m-103-14.4C10.7 85.6 0 74.9 0 61.6a23.9 23.9 0 0 1 23.9-23.9c5.3 0 10.3 1.7 14.5 4.9 1.7 1.3 2 3.7.7 5.4s-3.7 2-5.4.7c-.5-.4-1-.7-1.5-1 0 0-.1 0-.1-.1A16.28 16.28 0 0 0 7.5 61.5c0 8.9 7.5 16.4 16.4 16.4 2.9 0 5.8-.8 8.3-2.3 0 0 .1 0 .1-.1.5-.3 1-.7 1.5-1 1.7-1.3 4.1-1 5.4.7 1.3 1.7 1 4.1-.7 5.4-4.2 3.3-9.2 5-14.6 5 .1 0 .1 0 0 0z"/>
  <path d="M2.7 21.6c.5 4 4.9 5.8 9.4 5.8s9.1-1.8 9.1-5.7c0-4.7-5.4-5-9-5.5C6.6 15.5.8 14.6.8 9c0-5.7 5.4-7.8 11.1-7.8S23 3.5 23 8.4h-2.5c0-3.4-4.3-4.9-8.5-4.9S3 5 3.3 8.9c0 4.2 6 4.6 9.1 4.9 5.6.7 11.5 1.8 11.3 7.9 0 5.5-5.6 8-11.7 8-5.8 0-11.3-2.3-12-8.1h2.7zM40 26.9c5.8-.1 11.5-3.9 11.5-11.6S45.7 3.6 40 3.6c-5.8 0-11.7 3.9-11.7 11.7-.1 7.8 5.8 11.7 11.7 11.6m-.1 2.5c-7.2 0-14.5-4.7-14.5-14.1 0-9.5 7.2-14.2 14.4-14.2s14.3 4.8 14.3 14.2c.1 9.4-7 14.1-14.2 14.1M54.8 1.6c4.8-1 6.4 1.4 6.4 5.3 1.8-3.9 5.3-5.8 10-5.8 4.9 0 7.5 2.7 8.5 6.6 1.5-4.3 5.6-6.6 10.6-6.6 7 0 9 5.4 9 11.5v9.7c0 3.2-.3 5.3 4 4.5V29c-5.4 1.1-6.8-1.3-6.8-6.3v-10c0-4.9-1.6-9.1-7-9.1-5.6.1-8.9 3.9-8.9 9.5v16h-2.7V13c0-5.2-1.6-9.5-7.3-9.5-5.7 0-9.2 3.8-9.2 9.5v16h-2.7V9.9c0-5 .2-6.8-3.9-6.3v-2zM118.2 26.9c5.8-.1 11.5-3.9 11.5-11.6s-5.8-11.7-11.5-11.7c-5.8 0-11.7 3.9-11.7 11.7-.1 7.8 5.8 11.7 11.7 11.6m-.1 2.5c-7.2 0-14.5-4.7-14.5-14.1 0-9.5 7.2-14.2 14.4-14.2s14.3 4.8 14.3 14.2c.1 9.4-7 14.1-14.2 14.1M136.7 21.6c.5 4 4.9 5.8 9.4 5.8s9.1-1.8 9.1-5.7c0-4.7-5.4-5-9-5.5-5.4-.6-11.3-1.6-11.3-7.2 0-5.7 5.4-7.8 11.1-7.8 5.7 0 11.1 2.3 11.1 7.2h-2.5c0-3.4-4.3-4.9-8.5-4.9-4.1 0-8.9 1.6-8.6 5.4 0 4.2 6 4.6 9.1 4.9 5.6.7 11.5 1.8 11.3 7.9 0 5.5-5.6 8-11.7 8-5.8 0-11.3-2.3-12-8.1h2.5zM182.9 51.4c-3.3 0-6.4 1-9 2.6 4.8 4.5 9.6 9.3 14.2 14.5-4.7 5.2-9.4 10-14.2 14.5 2.6 1.6 5.7 2.6 9 2.6a17.1 17.1 0 1 0 0-34.2" class="st1"/>
  <path fill="#fabc43" d="M188.1 68.5c-4.7-5.2-9.4-10-14.2-14.5-2.1 1.3-3.8 3-5.2 5a9.5 9.5 0 1 1 0 19c1.3 2 3.1 3.7 5.2 5 4.8-4.6 9.5-9.4 14.2-14.5"/>
  <path d="M168.7 77.9a9.5 9.5 0 1 0 0-19c-1.8 2.7-2.9 6-2.9 9.5 0 3.6 1.1 6.8 2.9 9.5" class="st1"/>
</svg>
