<svg xmlns="http://www.w3.org/2000/svg" id="Camada_1" viewBox="0 0 100 21">
  <style>
    .st0{fill:#fff}
  </style>
  <path d="M14.8 16.7h-3.3l-.8-7.9-1 7.9H5.2L4.1 8.8H4l-.6 7.9H0v-.2L1.4 5.4h4.9l1.2 8.8 1.1-8.8h4.9l1.3 11.1zM24.5 12.6c0 2.9-1.5 4.4-4.9 4.4-3.2 0-5-1.4-5-4.4V5.4h3.3v7.1c0 1.2.7 1.8 1.6 1.8 1.1 0 1.6-.6 1.6-1.8V5.4h3.3v7.2h.1zM29.7 5.4c3.4 0 5.1 1.9 5.1 5.6 0 3.8-1.7 5.7-5.1 5.7h-5V5.4h5zm-.4 8.9c1.5 0 2.1-1.1 2.1-3.3 0-2.1-.6-3.2-2-3.2h-1.3v6.5h1.2z" class="st0"/>
  <path d="M37.9 9.8h4v2.5h-4v2h4.6v2.4h-7.9V5.4h7.9v2.4h-4.6zM57.9 16.8h-3.4v-4.2H51v4.2h-3.3V5.5H51v4.6h3.5V5.5h3.4z" class="st0"/>
  <path d="M68.3 16.8h-3.6l-.4-1.9h-3.1l-.4 1.9h-3.3v-.2l3.3-11.1H65l3.3 11.1v.2zM62.7 8l-1 4.4h2l-1-4.4z" class="st0"/>
  <path d="M72.8 5.5c2.2 0 3.4 1.1 3.4 3 0 1.1-.5 2-1.2 2.4 1.1.4 1.8 1.4 1.8 2.7 0 2.1-1.4 3.3-3.9 3.3h-5.1V5.5h5zm-1.7 4.2h1.1c.5 0 .8-.3.8-.9 0-.6-.3-.9-.8-.9h-1.1v1.8zm1.2 4.7c.7 0 1.1-.4 1.1-1.1 0-.7-.4-1.2-1.1-1.2h-1.2v2.3h1.2zM76.8 5.5h3.3v11.3h-3.3z" class="st0"/>
  <path d="M86.3 8v8.8H83V8h-3.2V5.5h9.8V8z" class="st0"/>
  <path d="M88.6 11.2c0-3.6 2.3-5.9 5.8-5.9s5.6 2.1 5.6 5.8c0 3.6-2.3 6-5.8 6-3.5-.1-5.6-2.2-5.6-5.9m8-.1c0-2.1-1-3.2-2.3-3.2C93 7.9 92 9 92 11.1s1 3.3 2.3 3.3c1.3 0 2.3-1.2 2.3-3.3" class="st0"/>
  <path fill="#91b744" d="M38.3 1.8v3.6h3.3v11.3h-3.3V21H51v-4.3h-3.2L47.7.8h-4z"/>
  <path d="M62.6 4.4l-1.4-1.2L63.9 0l1.9 1.7-3.2 2.7z" class="st0"/>
</svg>
