<svg xmlns="http://www.w3.org/2000/svg" id="Camada_1" viewBox="0 0 150 53.45">
  <style>
    .st2{fill-rule:evenodd;clip-rule:evenodd;fill:#fff}
  </style>
  <path fill="#008c50" d="M11.56 52.58A10.7 10.7 0 0 1 .88 41.89V11.56A10.7 10.7 0 0 1 11.56.87h126.89a10.7 10.7 0 0 1 10.69 10.69v41.02H11.56z"/>
  <path fill="#fff" d="M138.44 1.75a9.8 9.8 0 0 1 9.81 9.81v40.15H11.56a9.82 9.82 0 0 1-9.81-9.82V11.56c0-5.42 4.4-9.81 9.81-9.81h126.88m0-1.75H11.56A11.57 11.57 0 0 0 0 11.56v30.33c0 6.37 5.18 11.55 11.56 11.55H150V11.56C150 5.18 144.81 0 138.44 0z"/>
  <g>
    <path d="M120.69 18.92h5.22l7.84 10.43h-5.22l3.91 5.21h-6.53L122 29.35h2.59l-3.9-5.21h3.9l-3.9-5.22zM120.69 18.92h-5.22l-7.84 10.43h5.22l-3.91 5.21h6.53l3.9-5.21h-2.62l3.94-5.21h-3.9l3.9-5.22zM21.86 19.98h-5.57v8.87c0 4.29 3.19 5.96 7.24 5.96 4.4 0 7.31-1.56 7.31-6.28v-8.55h-5.46v8.66c0 1.42-.32 2.41-1.77 2.41-1.35 0-1.74-1.03-1.74-2.41v-8.66h-.01zM32.22 34.56h5.25v-6.28c0-.6 0-1.45.95-1.45.92 0 .92.85.92 1.45v6.28h5.25V27c0-2.12-1.03-3.58-3.83-3.58-1.48 0-2.9.6-3.54 2.13h-.04v-1.88h-4.97v10.89h.01zM46.41 34.56h5.25V23.67h-5.25v10.89zm5.25-15.64h-5.25v3.62h5.25v-3.62zM53.39 34.56h5.25v-6.28c0-.6 0-1.45.96-1.45.89 0 .89.85.89 1.45v6.28h5.28v-6.28c0-.6 0-1.45.89-1.45.95 0 .95.85.95 1.45v6.28h5.26v-6.53c0-2.13 0-4.61-3.83-4.61-1.32 0-3.12.6-3.48 1.88h-.03c-.43-1.31-1.95-1.88-3.41-1.88-1.67 0-3.09.6-3.73 2.13h-.04v-1.88h-4.96v10.89zM79.07 28.07c-.07-.85.18-2.13 1.42-2.13 1.17 0 1.31 1.31 1.31 2.13h-2.73zm7.28 2.3v-.64c0-3.69-1.49-6.31-5.71-6.31-4.4 0-6.74 1.84-6.74 5.5 0 3.76 2.34 5.89 6.74 5.89 1.84 0 3.51-.22 4.9-.64v-2.8c-.82.43-2.13.68-3.55.68-1.56 0-2.8-.32-2.91-1.67h7.27v-.01zM100.66 34.56V18.92h-5.25v6.17h-.04a3.7 3.7 0 0 0-3.3-1.67c-3.26 0-4.61 2.59-4.61 5.53 0 3.12 1.28 5.85 4.79 5.85 1.7 0 2.77-.6 3.48-2.24h.04v1.99h4.89v.01zm-5.11-5.5c0 1.03-.18 2.23-1.27 2.23-1.17 0-1.35-1.2-1.35-2.34 0-1.13.18-2.27 1.28-2.27 1.16 0 1.34 1.14 1.34 2.38zM105.02 37.17V16.3h-.87v20.87h.87z" class="st2"/>
  </g>
</svg>
