<svg xmlns="http://www.w3.org/2000/svg" id="Layer_1" viewBox="0 0 203.9 278.2">
  <style>
    .st0{opacity:.4;fill:#baddcc;enable-background:new}.st1{fill:#fedfb3}.st5{fill:#62447f}.st9{fill:none;stroke:#bbd034;stroke-miterlimit:10}
  </style>
  <path d="M57.3 51.7s23.9-38.8 84.3-8.3 21.1 80.9 28.7 109.8c7.6 28.9 13.1 54.8-28.3 83.3s-114.7-10-131-36.3C-5.2 173.8-6.1 148 26.1 123.9s13-43.9 31.2-72.2z" class="st0"/>
  <path d="M76.4 35.2c0-14.1.5-29.9 16.5-29.9 17.7 0 19.8 14.1 19.8 29.9 0 14.1-7.2 26.8-19.8 26.8-19.6 0-16.5-11-16.5-26.8" class="st1"/>
  <path d="M93.3 76.1c-1.8 0-3.3-1.4-3.3-3.2V61c0-1.8 1.5-3.3 3.3-3.3s3.3 1.5 3.3 3.3v11.8c0 1.8-1.5 3.3-3.3 3.3" class="st1"/>
  <path fill="none" stroke="#2b2523" stroke-linecap="round" stroke-linejoin="round" stroke-width=".77" d="M82.8 34.8c0 .6.5 1.2 1.2 1.2s1.2-.5 1.2-1.2"/>
  <path d="M100.9 30s6 .3 6 6-6 6-6 6V30z" class="st1"/>
  <path fill="#6e340f" d="M91.1 12.7s7.1 30.5 0 36.4 1.8 12.9 5.4 10.5c-1.2 14.6 21.9 9 22.9.3 14.1 7.9 17.2-10.8 10.5-13.4-6.6-2.6-5.3 3.9-9.7 1.3-4.4-2.6 2.3-7.4 3.9-28.9 1.7-21.5-16.4-22.5-31.2-13.6C71.7-.4 68.8 18.1 76.2 21.4c7.4 3.3 11.2-10 14.9-8.7"/>
  <path fill="#2b2523" d="M76.2 48.6c0-1.3 1.1-2.3 2.4-2.4 1.3 0 2.4 1.1 2.4 2.4 0 1.3-1.1 2.4-2.4 2.4-1.3 0-2.4-1.1-2.4-2.4"/>
  <path d="M50.5 85.8c-5.8-10.7.4-29.5 12-36.6 1.7-1 3.8-.5 4.8 1.1 1 1.7.5 3.8-1.1 4.8-8.4 5.2-13.5 20-9.5 27.4 3.2 6.1 13.1 5.7 27-.9 1.7-.9 3.8-.1 4.6 1.6.9 1.7.1 3.8-1.6 4.6-9.1 4.3-16 5.9-21.3 5.9-8.7 0-12.9-4.4-14.9-7.9zM98.9 273.9c-1.8 0-3.2-1.5-3.3-3.2V151.3c0-1.8 1.5-3.3 3.3-3.3s3.3 1.5 3.3 3.3v119.3c0 1.8-1.5 3.3-3.3 3.3" class="st1"/>
  <path d="M84.2 278.2h17.9v-7.4h-6.6z" class="st5"/>
  <path d="M87.9 273.9c-1.8 0-3.3-1.5-3.3-3.2V151.3c0-1.8 1.5-3.3 3.3-3.3s3.3 1.5 3.3 3.3v119.3c0 1.8-1.5 3.3-3.3 3.3" class="st1"/>
  <path d="M73.1 278.2H91v-7.4h-6.5z" class="st5"/>
  <path fill="#bbd034" d="M76.7 145c0-10.4 2.3-23.7 2.4-35.6 0-7.3-4.9-8.6-4.9-20 0-7 3.9-17 15.8-19.7 2.6-.6 6.3-.6 9 0 8.4 1.9 11.9 6.7 11.9 12.9 0 11.3-1.6 19.5-1.6 26.8 0 12 3 25.3 3 35.6 0 7.3-7.3 12.2-17.8 12.2s-17.8-4.9-17.8-12.2"/>
  <path d="M78.2 115.8h32.3l-.8-6.1H78.8z" class="st5"/>
  <path fill="#cfd1d3" d="M77.3 109.7H80v6.1h-2.7z"/>
  <path fill="#7ac0a0" d="M66.6 243s7.3 4.5 29.9 4.5 29.9-4.5 29.9-4.5l-15.9-127.2H78.2L66.6 243z"/>
  <path d="M96.6 173.4a3.5 3.5 0 0 1-.6-4.9c6.9-8.8.5-47.9-2.9-68.9-1.2-7.8-2.3-14-2.5-17.6-.1-1.9 1.3-3.6 3.2-3.7 1.9-.1 3.6 1.3 3.7 3.2.3 3.2 1.3 9.6 2.5 17 5.4 33.3 9.6 64 1.5 74.3-.7.8-1.7 1.3-2.7 1.3-.7 0-1.5-.3-2.2-.7z" class="st1"/>
  <path d="M67.1 238.3c27.7 8 53.4 2.2 58.8 0M67.1 235.3c27.7 8 53.4 2.2 58.8 0" class="st9"/>
  <path fill="#e50b47" d="M61.1 48.7c0-5.1 4.1-7.2 9.2-7.2s9.2 2.1 9.2 7.2-4.1 10.2-9.2 10.2-9.2-5.1-9.2-10.2"/>
  <path fill="#6e2f1b" d="M69.8 42.8v-5.2c0-.3.2-.5.5-.5s.5.2.5.5v5.2c0 .3-.2.5-.5.5s-.5-.3-.5-.5z"/>
  <path fill="#8ba927" d="M70.3 40.6c-7.7 2.6-9.2-3.4-9.2-3.4 3.1-1.3 8 0 9.2 3.4"/>
  <circle cx="184.4" cy="236.5" r="19.5" class="st0"/>
</svg>
