<svg xmlns="http://www.w3.org/2000/svg" id="Camada_1" data-name="Camada 1" viewBox="0 0 500 500">
  <defs>
    <style>
      .cls-3{fill:#62447f}.cls-4{fill:#c68dbe}.cls-5{fill:#ffeec5}.cls-6{fill:#ffe191}
    </style>
  </defs>
  <path fill="#7ac0a0" d="M84.45 308.48h3.26a10.87 10.87 0 0 0 10.84-10.84v-27a10.87 10.87 0 0 0-10.84-10.83h-3.26v-.67A10.43 10.43 0 0 0 74 248.68h-6.21V233.3H53.27v15.38h-6.22a10.43 10.43 0 0 0-10.44 10.44v.67h-3.26a10.87 10.87 0 0 0-10.84 10.83v27a10.87 10.87 0 0 0 10.84 10.84h3.26v10.06a10.74 10.74 0 0 0 .18 1.9h-4.28a10 10 0 0 0-10 10v95.34a10 10 0 0 0 10 10h56a10 10 0 0 0 10-10v-95.32a10 10 0 0 0-10-10h-4.24a10.74 10.74 0 0 0 .18-1.9z" opacity=".75"/>
  <path fill="#ffd55b" d="M402.73 136.46V92.15A18.17 18.17 0 0 0 384.58 74H274.85a18.17 18.17 0 0 0-18.15 18.15V136a159.23 159.23 0 1 0 146 .43zM273.2 92.15a1.68 1.68 0 0 1 1.65-1.65h109.73a1.68 1.68 0 0 1 1.65 1.65V129a159.7 159.7 0 0 0-113-.31z"/>
  <path d="M228.79 361.03l-10.8-10.8h-47.83l-10.8 10.8v64.8l10.8 10.8h47.83l10.8-10.8v-64.8z" class="cls-3"/>
  <path d="M170.16 361.03h47.83v64.8h-47.83zM228.79 373.37h100.29v40.12H228.79z" class="cls-4"/>
  <path d="M398.51 361.03l-10.8-10.8h-47.83l-10.8 10.8v64.8l10.8 10.8h47.83l10.8-10.8v-64.8z" class="cls-3"/>
  <path d="M339.88 361.03h47.83v64.8h-47.83z" class="cls-4"/>
  <path d="M104.84 341.17H89.57L55.75 375v15.27l45.82 45.82h15.28l33.82-33.82V387l-45.83-45.83z" class="cls-5"/>
  <path d="M79.29 356.23h47.83v64.8H79.29z" class="cls-6" transform="rotate(-45 103.21 388.64)"/>
  <path d="M113.07 308.57h100.29v40.12H113.07z" class="cls-6" transform="rotate(-45 163.21 328.63)"/>
  <path d="M224.86 221.16h-15.28l-33.82 33.82v15.28l45.82 45.82h15.28l33.82-33.82v-15.27l-45.82-45.83z" class="cls-5"/>
  <path d="M199.3 236.22h47.83v64.8H199.3z" class="cls-6" transform="rotate(-45 223.22 268.62)"/>
</svg>
