<svg id="Camada_1" data-name="Camada 1" xmlns="http://www.w3.org/2000/svg" viewBox="0 0 500 500"><defs><style>.cls-1{fill:#ececec;}.cls-2{fill:#f0666f;}.cls-3{fill:#ffeec5;}.cls-4{fill:#c8c9cd;}</style></defs><title>costuma-exercitar</title><rect class="cls-1" x="64.28" y="115.59" width="371.44" height="286.41" rx="26.85"/><path class="cls-2" d="M84.11,115.59H415.89a19.83,19.83,0,0,1,19.83,19.83v46.4a0,0,0,0,1,0,0H64.28a0,0,0,0,1,0,0v-46.4A19.83,19.83,0,0,1,84.11,115.59Z"/><rect class="cls-3" x="100.98" y="95" width="10.74" height="41.17" rx="5.37"/><rect class="cls-3" x="129.62" y="95" width="10.74" height="41.17" rx="5.37"/><rect class="cls-3" x="358.75" y="95" width="10.74" height="41.17" rx="5.37"/><rect class="cls-3" x="387.39" y="95" width="10.74" height="41.17" rx="5.37"/><rect class="cls-4" x="201.85" y="198.83" width="43.88" height="28.64" rx="7.31"/><rect class="cls-4" x="257.3" y="198.83" width="43.88" height="28.64" rx="7.31"/><rect class="cls-4" x="312.76" y="198.83" width="43.88" height="28.64" rx="7.31"/><rect class="cls-4" x="368.21" y="198.83" width="43.88" height="28.64" rx="7.31"/><rect class="cls-4" x="90.94" y="237.31" width="43.88" height="28.64" rx="7.31"/><rect class="cls-4" x="146.39" y="237.31" width="43.88" height="28.64" rx="7.31"/><rect class="cls-4" x="201.85" y="237.31" width="43.88" height="28.64" rx="7.31"/><rect class="cls-4" x="257.3" y="237.31" width="43.88" height="28.64" rx="7.31"/><rect class="cls-4" x="312.76" y="237.31" width="43.88" height="28.64" rx="7.31"/><rect class="cls-4" x="368.21" y="237.31" width="43.88" height="28.64" rx="7.31"/><rect class="cls-4" x="90.94" y="275.8" width="43.88" height="28.64" rx="7.31"/><rect class="cls-4" x="146.39" y="275.8" width="43.88" height="28.64" rx="7.31"/><rect class="cls-4" x="201.85" y="275.8" width="43.88" height="28.64" rx="7.31"/><rect class="cls-4" x="257.3" y="275.8" width="43.88" height="28.64" rx="7.31"/><rect class="cls-4" x="312.76" y="275.8" width="43.88" height="28.64" rx="7.31"/><rect class="cls-4" x="368.21" y="275.8" width="43.88" height="28.64" rx="7.31"/><rect class="cls-4" x="90.94" y="314.29" width="43.88" height="28.64" rx="7.31"/><rect class="cls-4" x="146.39" y="314.29" width="43.88" height="28.64" rx="7.31"/><rect class="cls-4" x="201.85" y="314.29" width="43.88" height="28.64" rx="7.31"/><rect class="cls-4" x="257.3" y="314.29" width="43.88" height="28.64" rx="7.31"/><rect class="cls-4" x="312.76" y="314.29" width="43.88" height="28.64" rx="7.31"/><rect class="cls-4" x="368.21" y="314.29" width="43.88" height="28.64" rx="7.31"/><rect class="cls-4" x="90.94" y="352.77" width="43.88" height="28.64" rx="7.31"/><rect class="cls-4" x="146.39" y="352.77" width="43.88" height="28.64" rx="7.31"/><rect class="cls-4" x="201.85" y="352.77" width="43.88" height="28.64" rx="7.31"/><rect class="cls-4" x="257.3" y="352.77" width="43.88" height="28.64" rx="7.31"/></svg>