<svg xmlns="http://www.w3.org/2000/svg" data-name="Camada 1" viewBox="0 0 500 500">
  <path fill="#ececec" d="M352.29 214.44c69.67 0 126.14 35.81 126.14 80 0 26.65-20.54 50.25-52.13 64.78 1.8 11 6.65 31.43 18.29 37.53 13.31 7-36.55-.68-54.53-26a194.13 194.13 0 0 1-37.77 3.65c-69.67 0-126.15-35.82-126.15-80s56.48-79.96 126.15-79.96z" opacity=".5"/>
  <path fill="#ffeec5" d="M206.66 62c-103.82 0-188 53.37-188 119.2 0 39.7 30.61 74.86 77.68 96.53-2.69 16.34-9.92 46.83-27.25 55.91-19.83 10.39 54.46-1 81.25-38.68a288.66 288.66 0 0 0 56.29 5.44c103.81 0 188-53.37 188-119.2S310.47 62 206.66 62z"/>
  <path fill="#62447f" d="M120.85 158.15c8.74 0 13.76 4.4 13.76 12.17 0 4.88-2.13 8.53-5.64 10.24 5.29 1.59 8.53 5.85 8.53 11.7 0 8.87-6.06 14-16.23 14h-20v-48.11zm-8.59 18.63h6.81c3.23 0 5.08-1.92 5.08-5.36s-1.71-5.16-5-5.16h-6.87zm6.94 21.39c4.47 0 7-2.48 7-6.74 0-3.92-2.41-6.53-7-6.53h-7v13.27zm42.71 7.49a17.31 17.31 0 0 1-7.36 1.59c-6.88 0-10.45-3.44-10.45-10.32v-42.22h10.73v40.36c0 3.37 1.58 4.54 4.74 4.54a6.18 6.18 0 0 0 1.79-.27zm3.44-31.66a43.92 43.92 0 0 1 15.65-3.06c9.35 0 14.37 4.33 14.37 12.1v23.24h-6.81l-1.48-2.28a16.88 16.88 0 0 1-10.32 3.24c-7.29 0-12-4.06-12-10.25 0-7.15 5.29-11.28 14.51-11.28h5.36v-.89c0-3.72-1.92-5.3-6.74-5.3a52.15 52.15 0 0 0-11.21 1.79zm15.4 17.26c-3.5 0-5.57 1.86-5.57 4.75 0 2.54 1.93 4.19 4.82 4.19a11.7 11.7 0 0 0 4.6-1v-8zM228.07 172a23.47 23.47 0 0 1 6.94-1c10.18 0 16 6.53 16 17.81s-6.6 18.5-17 18.5a15.91 15.91 0 0 1-9.35-2.76l-1.1 1.79h-6.26v-51.63h10.73zm0 25.65a7.61 7.61 0 0 0 4.67 1.51c4.75 0 7.29-3.23 7.29-10.38 0-6.6-2.75-10.11-7.36-10.11a12.72 12.72 0 0 0-4.6.89zm46.55 8.01a17.31 17.31 0 0 1-7.36 1.59c-6.87 0-10.45-3.44-10.45-10.32v-42.22h10.73v40.36c0 3.37 1.58 4.54 4.74 4.54a6.13 6.13 0 0 0 1.79-.27zm3.44-31.66a44 44 0 0 1 15.61-3.09c9.35 0 14.37 4.33 14.37 12.1v23.24h-6.8l-1.45-2.25a16.87 16.87 0 0 1-10.31 3.24c-7.29 0-12-4.06-12-10.25 0-7.15 5.3-11.28 14.51-11.28h5.37v-.89c0-3.72-1.93-5.3-6.74-5.3a52.06 52.06 0 0 0-11.21 1.79zm15.4 17.26c-3.5 0-5.56 1.86-5.56 4.75 0 2.54 1.92 4.19 4.81 4.19a11.79 11.79 0 0 0 4.61-1v-8zM313 201a6.19 6.19 0 1 1 12.37 0 6.19 6.19 0 1 1-12.37 0zm11.55-32.53L323 188.82h-7.6l-1.58-20.36v-10.31h10.73z"/>
</svg>
