<svg xmlns="http://www.w3.org/2000/svg" id="Camada_1" viewBox="0 0 634 807.9">
  <style>
    .st1{fill:#1b181d}.st2{fill:#e95e6b}.st3{fill:#836146}.st6,.st9{fill:none;stroke:#c4c9cb;stroke-width:26;stroke-linecap:round;stroke-linejoin:round;stroke-miterlimit:10}.st9{stroke:#836146}
  </style>
  <path fill="#baddcc" d="M631.3 535.2s37.8 143.5-170.2 217.3-238.3-132.3-323.2-179.2C53 526.4-20.7 481.1 5.3 319.4S286.5 71.5 385.2 92.3 546.8 169.4 531 299.2c-15.8 129.7 74.6 129.5 100.3 236z" opacity=".4"/>
  <path d="M426.2 152.6c-6.5-4.1-14.2-4.6-20.9-8-2.9-1.5-10.1-6.2-9.5-10.1.4-2.4 4.8-9.3 7.4-9.8 2-.4 1.1-.9 2.2 1.4.3.7.4 1.5.6 2.2a9.7 9.7 0 0 0 2.5 3.8c2.3 2.1 5.5 3.2 8.6 3.3 3 .1 6.3-.9 8.2-3.4.7-1 3.5-10 2.3-10.7 3 1 7.4 1.4 6.4-2-1.8-6.4-10.7-8.9-15.8-4.8-1.1.9-3.2 3.8-4 6.1 0-.1-.1-.2-.1-.3-.8-2.3-1.7-4.4-3-6.4-7.7-11.9-29.2-20.7-38.3-5.7-1.9 3.2-3.1 6.8-5.6 9.7-.5.6-3.5 3.8-4.5 3.2-1.2-.7-.8-4.5-.7-5.5 1.2-8 8.5-14 4.9-22.6-5.2-12.4-27.6-18.6-38.9-11.8-8.5 5.1-6.5 15-8.5 23.2-.5 2.2-1.3 4.6-3 6.2-1.9 1.8-4.3 1.7-6.7 2.3-1.7-3.1-4.2-5.6-8-7.4-3.7-1.7-8.3-2.4-12.2-1.1-4.6 1.6-6.3 5.5-8.8 9.3-2.2 3.5-4.4 3.4-7.7.9-2.4-1.7-4.5-3.7-6.8-5.5-4-3.3-8.4-6.2-13.5-7.2-7.1-1.5-17.4.4-19.2 8.7-1.3 5.8 2.9 10.3 4.2 15.6.4 1.6 1 5.1-.6 6.3-2.3 1.7-8.4-3.1-10.3-3.9-8.9-3.8-21.6-4.5-27.1 5.1-2.3 4-1.8 8.3.3 12.3 1.8 3.5 6.3 7.4 6.4 11.5.1 6.2-8.3 5.2-12.4 5.3-4.7.2-9.6 1.3-12.6 5.2-2.6 3.5-3.2 8.2-1.9 12.3.7 2 1.8 3.8 3.3 5.3.9.9 1.9 1.4 2.8 2.2 1.3.5 2 1.4 2.3 2.9-.2.5-.5 1.1-.7 1.6-.6 3.2-2 5.7-1.4 9.1.4 2.4 1.6 4.5 3.3 6.2 3.6 3.5 9.2 5 13.9 3.1 2-.8 2.6-2.6 1.2-4.4-2.3-2.8-5.7-6.7-4.3-10.6.4-.8.9-1.5 1.6-2.1.1 0 .1.1.2.1 1 .7 2.3 1.3 3.5 1.6 6.2 1.5 10.5-2.9 10.4-8.9 0-2.5-1-8.6 3.2-8.9 2.3-.1 4.2 4.3 6.1 5.8 1.1.9 2.4 1.6 3.8 2.2-2.5 3-7.2 4.8-9.8 7.1-3.4 2.9-6.3 7.3-4.4 11.9.6 1.4 1.4 2.5 2.3 3.4-.7.8-.7 1.7.6 2.9 2.8 2.5 6.3 3.8 9.8 3.5l1.9.5c2 .5 4.7.4 5.6-1.8.1-.2.2-.4.3-.7 3.1 1.5 6.9 1.7 10.2.6 3.1-1 5.4-3.3 8.2-4.8 3.3-1.8 7.1-2 10.7-3 7-1.8 13.3-5.3 20.1-7.6 6.3-2.1 13.1-3.1 19.7-2.9 13.5.3 26.5 5.1 36.9 13.7 5.2 4.3 9.8 9.2 16 12.2 6.1 2.9 13.4 4.5 20.1 5.1 8.8.8 13.7-4.1 16.5-10.7 1.2 1 2.6 1.8 4.2 2.4 4.9 1.8 12.5 1.1 14.2-4.8.7-2.5-.3-5.1-1.1-7.4-1.4-3.9-2.4-6 2-8 6.3-2.8 12.2-5.9 16.8-11.2 9-10.2 8.4-25.9-3.4-33.3" class="st1"/>
  <path d="M342.4 182.7c0 12.2-14.5 22-32.4 22s-32.4-9.8-32.4-22c0-12.1 14.5-22 32.4-22s32.4 9.9 32.4 22" class="st2"/>
  <path d="M389.3 291.5c0 56.5-28.9 95.7-79.6 95.7s-79.6-39.2-79.6-95.7 8.4-106.8 79.6-106.8 79.6 50.2 79.6 106.8M395 683.8c0 25.9-35.1 43.4-85.3 43.4s-85.3-17.5-85.3-43.4c0-36.9 17.5-84.4 17.5-127.2 0-26-10.9-63.1-10.9-103.7 0-22.2 16.7-31.5 57-38.3 12.8-2.1 30.4-2.1 43.2 0 40.3 6.8 57 16.1 57 38.3 0 40.6-10.9 77.6-10.9 103.7.1 42.8 17.7 90.3 17.7 127.2" class="st3"/>
  <path d="M384.4 500a88.28 88.28 0 0 1-34.3-70c0-3.8.2-7.6.7-11.3-3.5-.9-7.2-1.7-11.2-2.5v19.1c0 13.6-11 24.6-24.6 24.6h-10.6c-13.6 0-24.6-11-24.6-24.6v-19.1c-4 .8-7.8 1.6-11.2 2.5.5 3.7.7 7.5.7 11.3 0 28.5-13.4 53.8-34.3 70 3.1 21.7 7 41.1 7 56.7 0 42.7-17.5 90.2-17.5 127.2 0 25.9 35.1 43.4 85.3 43.4s85.3-17.5 85.3-43.4c0-36.9-17.5-84.4-17.5-127.2-.2-15.6 3.7-35 6.8-56.7" class="st2"/>
  <path fill="#00995d" d="M554.9 807.9H64.4l20-134.3h450.5z"/>
  <path fill="#7ac0a0" d="M554.9 801.7H64.4l20-134.3h450.5z"/>
  <path d="M337.4 706.5s109.8-18.3 171.2-76.1M281.9 713.9s-109.8-18.3-171.2-76.1" class="st6"/>
  <path d="M234.2 305.5s-22.9-1.2-22.9-20.4 22.9-20.4 22.9-20.4v40.8zM383.5 305.5s22.9-1.2 22.9-20.4-22.9-20.4-22.9-20.4v40.8z" class="st3"/>
  <path d="M311.1 347.9c-20.2 0-32.3-9.5-32.8-9.9-.8-.7-1-1.9-.3-2.8.7-.8 1.9-1 2.8-.3.1.1 11.6 9 30.4 9 18.5 0 27.1-8.8 27.2-8.8.7-.8 2-.8 2.8-.1.8.7.8 2 .1 2.8-.5.5-9.8 10.1-30.2 10.1M342.4 290.1c0 2.4-2.2 4.4-4.9 4.4s-4.9-2-4.9-4.4 2.2-4.4 4.9-4.4c2.6 0 4.9 2 4.9 4.4M276.9 290.1c0 2.4 2.2 4.4 4.9 4.4s4.9-2 4.9-4.4-2.2-4.4-4.9-4.4-4.9 2-4.9 4.4" class="st1"/>
  <path fill="#c4c9cb" d="M226.9 655.4c-1.5 9.9-2.6 19.5-2.6 28.4 0 25.9 35.1 43.4 85.3 43.4s85.3-17.5 85.3-43.4c0-8.9-1-18.4-2.6-28.4H226.9z"/>
  <path d="M309.6 422c-7.2 0-13.1-3.3-13.1-7.4v-34.4c0-4.1 5.9-7.4 13.1-7.4s13.1 3.3 13.1 7.4v34.4c0 4.1-5.8 7.4-13.1 7.4" class="st3"/>
  <path fill="#86729d" d="M394.1 668.6c-.5-4.3-1-8.6-1.7-13.1H226.9c-.7 4.5-1.3 8.8-1.7 13.1h168.9z"/>
  <path d="M248 449.7C54.4 230 300.6 135.3 300.6 13M367.2 449.7C560.9 230 309.6 135.3 309.6 13" class="st9"/>
  <path d="M115.4 618.4c-6.7-2.6-14.2.6-16.9 7.3-2.6 6.7.6 14.2 7.3 16.9.7.3 66.9 26.4 148.9 53 10.9 3.5 21.6 6.9 32 10.2 11.4-5.6 22.9-11.6 32.2-17.5C213.8 657.1 117 619 115.4 618.4M509.3 727.8c-40.9-1.9-93.9-13.1-147.8-27.6-9.5 6-21.3 12.2-33 17.9 75.4 21.6 135.7 33.5 179.6 35.6h.6c6.9 0 12.6-5.4 13-12.4.3-7.1-5.3-13.2-12.4-13.5" class="st3"/>
  <path fill="#563516" d="M319 688.2c-9.3 5.9-20.7 11.9-32.2 17.5 14.4 4.4 28.2 8.6 41.6 12.4 11.7-5.7 23.5-11.9 33-17.9-14.1-3.8-28.3-7.8-42.4-12"/>
  <path d="M508.6 630.4s-262.4 103.9-398 110.3" class="st9"/>
  <path d="M390.6 322.6c2.1-3.6 6.6-4.9 6.9-9.6.1-2.1-.9-3.9-2.1-5.6-.3-.4-1-1.1-1.8-1.8a3.7 3.7 0 0 0 2.6-3.7l-.4-21.6c-.1-6.5.6-13.7-.6-20.1-.5-2.5-1.5-4.2-2.7-6.4-1.7-3-.8-3.8.1-6.8 1.5-5-.5-9.2-3.1-13.4-1.4-2.2-2.9-4.3-3.4-6.8-.6-2.6-.3-5.3-1.2-7.9-.8-2.3-2.1-4.1-4-5.7-1.9-1.6-4.2-2.3-5.1-4.7-1.6-4.3-1.9-8-6.2-10.8-2.2-1.4-4.4-1.7-6.8-2.5-1.8-.6-.4.6-.7-1.5-.1-1.1-1.1-2.4-1.8-3.2-3.3-3.7-8.4-4.5-13.1-4.4-.3 0-1.4 0-2.5.1l-.2-.5c-.3-1.7-2.1-3.4-3.4-4.5-3.9-3.2-9.5-3.8-14.3-3-3.1.5-5 1.4-8 .5-.9-.3-1.8-.6-2.7-.8-6-2-12.6-3.5-18.9-2.1-2.7.6-5.3 1.8-7.4 3.7l-.9.9a161 161 0 0 0-9.8 3.3c-4.2-1.3-8.6-2.8-12.9-.9-2.3 1-3.7 2.8-4.6 5.1-.3.8-.5 2-.9 3-1.4.6-2.8 1.3-4.1 2-.5-.1-1-.1-1.5-.1-5.9-.2-9.7 2.6-11.6 8.1-.8 2.5-1.2 5.1-2.2 7.5-1.5 3.7-4.1 4.4-7.1 6.5-2.3 1.6-3.7 3.6-3.8 6.5-.1 3.5 2.5 6.9 1.6 10.4-1.5 5.4-7.9 8.2-8.6 14.1-.5 3.4 1.4 6.1 3 8.9.1.2.3.5.4.7l-.3 2.2-.3 2.3c-1.2.6-2.7.9-3.7 1.8-2.5 2.2-2.5 5.4-1.8 8.3 1.3 5.4 3.4 10.6 5.1 15.9.2.7.8 1.4 1.5 1.9-.2.3-.4.6-.7 1-2 2-3.7 3.3-4.3 6.3-.5 2.4 0 5.1 1.1 7.3.6 1.1 1.5 2.1 2.4 3 .8.7 3.1 1.5 3.5 2.3.5.9-.1 3.5-.7 4.4-1.1 1.6-1.5 1.2-3.3 2-2.4 1.1-4 3.2-4.4 5.9-1 6.3 5.4 10.3 10.5 11.9 5.8 1.8 7.4-4.4 1.7-6.2-1.8-.6-3-2.4-2.3-4.3.6-1.6 1.8-1.5 3.2-2.1 2-.8 3-1.8 3.9-3.7 2.1-4.3 1.8-9.1-2.2-12-1.9-1.4-3.5-1.9-3.8-4.6-.3-3.3 2.1-4.3 4.1-6.5s2.2-4.4 1.6-6.7c.4-.4.6-1 .7-1.7.2-2.7.3-5.5.4-8.3 1.9-2.4 4.4-4.7 5.4-6.8 2.3-4.9.5-9.8.8-15 .1-2.2.6-5 2.5-6.4 1.7-1.2 4.3-1 6.1-2.2 3-2 3.9-5.3 4.2-8.6.3-3.7-.4-8.5 1.8-11.7 2.5-3.6 7.9-3 11.7-3.3 4-.3 8.1-1 11.5-3.4 1.5-1 2.7-2.3 4-3.5 1.2-1.1 3.4-4.5 5.3-4.7 1.3-.1 3.8 2.4 5 3 2.1 1.1 4.4 1.9 6.8 2.2 4.6.7 9.4.2 13.5-2.1.4-.2 5.4-4.4 4.9-4.4.7 0 2 3.1 2.3 3.7 1.8 3.2 3.5 6.2 6.8 8 3.2 1.8 6.8 2.1 10.3 1.2 1.7-.5 3.4-1.2 5-2 .3-.1 1.6-.9 2.5-1.2-.5.7-.4 2.5-.5 2.9-.5 3.6-1.4 7 .8 10.3 2.5 3.8 7.4 4.9 11.7 4.9 1.9 0 5.5-1.1 5.3 1.5-.1 2-2.4 3.7-2.8 5.7-.8 4.2 2.6 7.1 6.3 8.3.9.3 1.9.3 2.7.6 2 .7 1.6-.2 1.5 2 0 1.8-1.2 3.6-1 5.5.2 2.2 1.3 4.1 3.1 5.4 1.1.9 5.6 2.6 5.5 2.8-1 1.4-.4 2.8.8 3.8-.1 2-.1 4.1-.1 5.9l.3 17.2c-2.6 2.8-2.2 6.4.2 9.6 1.4 1.9 5.5 4.2 4.9 7-.5 2.2-3.6 3.7-5 5.3a9.55 9.55 0 0 0-1.4 10.9c.9 1.8 2.4 2.9 3.8 4.2 3 2.6 1 4.6-1.4 7.2-3.1 3.3 6 7.1 8.8 4.1 2.7-2.9 5.3-6.5 3.7-10.6-1.7-4.2-8.7-5.3-5.7-10.6" class="st1"/>
</svg>
