<svg xmlns="http://www.w3.org/2000/svg" id="Camada_1" data-name="Camada 1" viewBox="0 0 500 500">
  <defs>
    <style>
      .cls-2{fill:#f69651}.cls-3{fill:#ffeec5}
    </style>
  </defs>
  <path fill="#7ac0a0" d="M385.21 251H423.78a39.35 39.35 0 0 0 4.14-78.49 19.88 19.88 0 0 1-2.93.19c-13-.58-23.53-10.54-23.53-23.53a23.53 23.53 0 0 1 21.91-23.47v-.26a20.29 20.29 0 0 0 0-40.17V85H81.43a39.74 39.74 0 0 0 0 79.45h181.29v.18a13 13 0 0 1 0 25.61v.26a17.84 17.84 0 0 0 0 35.54v.08h55.17a12.17 12.17 0 1 1 0 24.34h-.81a19.88 19.88 0 0 0 .41 39.75c1.95 0 2.84 0 25.55-.81h13a26 26 0 0 1 0 51.86 18.67 18.67 0 1 0 0 37.33h15a12.58 12.58 0 0 1 0 25.15h15.82a12.17 12.17 0 0 0 0-24.34 82.68 82.68 0 0 1-8.93-.83c-10.54-.79-17.85-8.61-17.85-18.64a18.67 18.67 0 0 1 17.85-18.65H399a26 26 0 0 0 4.42-51.54h-18.21a19.45 19.45 0 1 1 0-38.9z" opacity=".5"/>
  <ellipse cx="90.08" cy="403.87" class="cls-2" rx="15.17" ry="18.13"/>
  <path d="M90.08 385.74h70.14V422H90.08z" class="cls-2"/>
  <ellipse cx="157.22" cy="403.87" class="cls-3" rx="15.17" ry="18.13"/>
  <path d="M157.22 385.74h182.09V422H157.22z" class="cls-3"/>
  <ellipse cx="339.32" cy="403.87" fill="#f0666f" rx="15.17" ry="18.13"/>
</svg>
