<svg xmlns="http://www.w3.org/2000/svg" id="Camada_1" data-name="Camada 1" viewBox="0 0 500 500">
  <defs>
    <style>
      .cls-8{fill:#ffe191;opacity:.75}
    </style>
  </defs>
  <path fill="#7ac0a0" d="M133.52 149.62c27-9.52 44.34-17.2 63.9-14.75s46.41 8.42 63-6.8 46.7-22.41 61.4 5.87 15.49 34.7 20.93 68.43 22.65 16.94 41.27 52.84 43 86.93 21.47 92.37-53.6-14-66.21 18.9-4.27 85.39-40.8 57.75-72.41-5.81-85.16-34c-21.8-48.27-56.54-68.4-79.93-56.13s-56-20-56.92-47.68-21.62-52.51 3.85-75.84 6.23-44.41 53.2-60.96z"/>
  <path fill="#baddcc" d="M335.1 255.37c-9.1 17.43-14.17 29.41-25.1 37.36s-27.21 17.54-28.4 33-12.94 33.1-33.6 25.81-24-10.13-42.58-24.49-19.29 2.13-45.47-7.14-62.31-23.43-54.08-36.24 33.46-18.1 24.34-40.52-37.91-44.82-6.63-48.09 39-31 58.65-22.87c33.57 14 60.42 7.77 66.4-9.35s37.45-16.24 50.89-2.79 35.47 16.19 33.64 39.84 17.73 25.11 1.94 55.48z" opacity=".5"/>
  <rect width="289.61" height="278.85" x="100.81" y="121.19" fill="#f59696" rx="18.74" transform="rotate(5.59 245.77 260.77)"/>
  <path fill="#f69651" d="M124.05 128.72h262.62v252.87H124.05z" transform="rotate(-30 255.37 255.15)"/>
  <path fill="#ffe191" d="M104.91 120.31h281.63v271.17H104.91z" transform="rotate(-5.3 245.92 256.05)"/>
  <path fill="#aa7f5f" d="M245.72 85C58.6 85 116.59 225 116.59 225v146.84a38.66 38.66 0 0 0 38.66 38.66h180.93a38.66 38.66 0 0 0 38.66-38.66V224.93S434.38 85 245.72 85z"/>
  <path fill="#ffeec5" d="M245.73 92.76C67.56 92.76 122.78 226 122.78 226v139.9a36.81 36.81 0 0 0 36.81 36.81h172.27a36.81 36.81 0 0 0 36.82-36.81V226S425.36 92.76 245.73 92.76z"/>
  <ellipse cx="326.55" cy="358.22" class="cls-8" rx="16.31" ry="24.84" transform="rotate(-24.6 326.61 358.28)"/>
  <circle cx="349.17" cy="324.11" r="12.23" class="cls-8"/>
  <circle cx="291.33" cy="374.53" r="15.94" class="cls-8"/>
</svg>
