<svg xmlns="http://www.w3.org/2000/svg" id="Camada_1" viewBox="0 0 655.1 745.1">
  <style>
    .st1{fill:#d09348}.st2{fill:#5b5c65}.st3{fill:#1b181d}.st4{fill:#b0a9a4}.st5{fill:#b17425}.st6{fill:#231f20}
  </style>
  <path fill="#baddcc" d="M648 456s55.1 137.8-142.3 236.5S253 590.4 163 554.2C72.9 518-5.7 482.2.3 318.5S249.1 38 349.5 46.6 519.4 103.3 519.6 234 609.4 353.4 648 456z" opacity=".4"/>
  <path d="M368.5 731.9c-4.6 0-8.4-3.8-8.4-8.4V389.8c0-4.7 3.8-8.4 8.4-8.4s8.4 3.8 8.4 8.4v333.7c0 4.6-3.8 8.4-8.4 8.4M237.6 731.9c-4.6 0-8.4-3.8-8.4-8.4V389.8c0-4.7 3.7-8.4 8.4-8.4 4.6 0 8.4 3.8 8.4 8.4v333.7c-.1 4.6-3.8 8.4-8.4 8.4" class="st1"/>
  <path d="M449.2 493a9.7 9.7 0 0 1-9.7-9.7c0-34.6-8.8-99.6-25.6-156.9-18.6-63.5-42.1-99.9-64.5-99.9-5.4 0-9.7-4.4-9.7-9.7s4.4-9.7 9.7-9.7c18.4 0 35.4 12.2 50.7 36.3 11.9 18.8 22.8 44.9 32.4 77.6 17.3 59 26.4 126.3 26.4 162.4 0 5.3-4.3 9.6-9.7 9.6" class="st2"/>
  <path d="M302.8 204.9c-4.7 0-8.4-3.3-8.4-7.3v-26.9c0-4 3.8-7.3 8.4-7.3 4.7 0 8.4 3.3 8.4 7.3v26.9c0 4-3.7 7.3-8.4 7.3" class="st1"/>
  <path d="M372.2 230.9c-1-23.5-29.8-33.4-69.4-33.4s-68.4 9.9-69.4 33.4l-5.7 154.8C227.2 419 265 424 302.8 424s75.6-5 75.1-38.3l-5.7-154.8z" class="st2"/>
  <path d="M376.7 719.4H360v19.1h45.5zM229.3 719.4h16.6v19.1h-45.5zM248.8 112.9s-14.9-.8-14.9-14.9c0-14 14.9-14.9 14.9-14.9v29.8zM356.9 112.9s14.9-.8 14.9-14.9c0-14-14.9-14.9-14.9-14.9v29.8z" class="st1"/>
  <path d="M358.9 103.1c0 43.5-7.9 73.7-56.1 73.7s-56.1-30.2-56.1-73.7 7.4-82.2 56.1-82.2 56.1 38.7 56.1 82.2" class="st1"/>
  <path d="M289 101.9a3.7 3.7 0 1 1-7.4 0c0-2.1 1.7-3.7 3.7-3.7 2.1-.1 3.7 1.6 3.7 3.7M324.7 101.9a3.7 3.7 0 1 1-7.4 0c0-2.1 1.7-3.7 3.7-3.7 2.1-.1 3.7 1.6 3.7 3.7M302.6 143.9c-13.1 0-21-6.9-21.3-7.2-.5-.5-.6-1.3-.1-1.8s1.3-.6 1.8-.1c.1.1 7.5 6.6 19.6 6.6 12 0 17.5-6.4 17.6-6.5.5-.5 1.3-.6 1.8-.2.5.5.6 1.3.2 1.8-.3.4-6.3 7.4-19.6 7.4" class="st3"/>
  <path d="M270 57.4c8.8-5.7 19.2-15.7 32.8-15.7s24 10 32.8 15.7c11.1 6.1 18.3 15.7 22.7 27.5-2.4-35.5-13.8-64-55.5-64-41.8 0-53.1 28.5-55.5 64 4.5-11.8 11.6-21.4 22.7-27.5" class="st4"/>
  <path d="M276.6 139.3c0-5.4 1.3-10.3 3.5-14.1-3.4 1.8-5.9 6.7-5.9 12.5 0 4.5 1.5 8.4 3.8 10.8-.9-2.8-1.4-5.9-1.4-9.2M328.7 139.3c0-5.4-1.3-10.3-3.5-14.1 3.4 1.8 5.9 6.7 5.9 12.5 0 4.5-1.5 8.4-3.8 10.8.9-2.8 1.4-5.9 1.4-9.2M272.3 103.6c1.8-.2 3.5-.4 5.1-.4-1.2-.8-3.2-1.3-5.3-1s-3.9 1.2-4.9 2.3c1.6-.3 3.3-.6 5.1-.9M272.7 99.8c1.8.4 3.5.8 5 1.3-.9-1.2-2.6-2.2-4.7-2.6s-4.1-.2-5.4.6c1.6.1 3.4.4 5.1.7M333 103.6c-1.8-.2-3.5-.4-5.1-.4 1.2-.8 3.2-1.3 5.3-1 2.1.3 3.9 1.2 4.9 2.3-1.6-.3-3.3-.6-5.1-.9M332.6 99.8c-1.8.4-3.5.8-5 1.3.9-1.2 2.6-2.2 4.7-2.6s4.1-.2 5.4.6c-1.6.1-3.3.4-5.1.7" class="st5"/>
  <path d="M267.7 54.3l10.1 8 3.8-9.4 14.2 13.8 7.1-19.7.9 14.1 4.8-12.1 5.8 7.8 1.8-7.2 8.7 9.1.5-5.9 12.9 9.7v-5.7l10.1 4.6-20-27.1c-.2 0-44.4-12.4-60.7 20" class="st4"/>
  <path d="M376.9 389.8c0-4.6-3.8-8.4-8.4-8.4s-8.4 3.8-8.4 8.4V675h16.8V389.8zM237.6 381.4c-4.6 0-8.4 3.8-8.4 8.4V675h16.7V389.8c0-4.7-3.7-8.4-8.3-8.4" class="st2"/>
  <path d="M305.4 378.8c-13.6 0-68-2.5-68 27.5V675h8.4V415.1c14.4 7.3 35.7 8.8 56.9 8.8 21.4 0 42.8-1.6 57.2-9v260h8.4V403.5c0-18.5-49.3-24.7-62.9-24.7M294.4 189.4h16.9v8.2h-16.9z" class="st6"/>
  <path d="M231.5 417a10.99 10.99 0 0 0 13.6-7.8c1.6-5.9-1.9-12-7.8-13.6a120.2 120.2 0 0 1-29.1-12l-10 19.9c10.1 5.7 21.2 10.2 33.3 13.5" class="st1"/>
  <path d="M271 210.5c-1.5-6-7.5-9.6-13.4-8.1-36.6 9-65.5 24.3-85.8 45.2-18.8 19.4-28.9 42.6-29.2 67.1-.3 22.2 8 44.4 23.3 62.4 8.8 10.4 19.7 19.2 32.3 26.3l10-19.9a95.8 95.8 0 0 1-25.3-20.8c-12-14.1-18.2-30.7-18-47.8.2-18.7 8.2-36.6 22.9-51.9 17.1-17.7 43.1-31.2 75.1-39.1 6-1.4 9.6-7.4 8.1-13.4" class="st2"/>
  <path d="M337.9 290.5v-89.3c-10.4-2.5-22.6-3.6-36.2-3.6s-25.9 1.2-36.2 3.6v89.3c0 15 12.2 27.2 27.2 27.2h18c15 0 27.2-12.2 27.2-27.2M356.9 707.2h25.9v12.2h-25.9z" class="st6"/>
  <path fill="none" stroke="#231f20" stroke-miterlimit="10" stroke-width="3.7" d="M369.8 713.3c52.4 0 16.7-20 51.4-25.6 40.7-6.5 103.3 31.6 53.5 47.3"/>
  <path fill="#c9e7d8" d="M509.1 7.7c-90.8 94.5-182 545-53.6 726.7 9.2 13 27.4 14.3 38.4 2.8 153.5-161 129.2-620 53.2-726.7-9-12.8-27.1-14.1-38-2.8"/>
  <path fill="#c2db79" d="M516 14.7c-44 45.9-88.7 182.5-106.2 324.8-20.8 169.4-1.3 311.2 53.6 388.9 2.7 3.8 6.9 6.2 11.4 6.6l53.3-724.9c-4.5-.4-8.9 1.3-12.1 4.6"/>
  <path fill="#49c0a0" d="M596.9 353.3c3.5-143.4-20.7-285.1-57.6-336.9-2.6-3.7-6.8-6.1-11.3-6.4l-53.2 725c4.6.3 9-1.4 12.3-4.8 65.6-68.9 105.7-206.2 109.8-376.9"/>
</svg>
