<svg xmlns="http://www.w3.org/2000/svg" id="Camada_1" data-name="Camada 1" viewBox="0 0 500 500">
  <defs>
    <style>
      .cls-2{fill:#ffd55b}.cls-4{fill:#ffe191}.cls-5{fill:#ffeec5}
    </style>
  </defs>
  <path fill="#7ac0a0" d="M340.71 176A13.42 13.42 0 0 1 354 162.54v-.11a16.65 16.65 0 0 1 30.66-9 20.09 20.09 0 0 1 39.38 4.69 16.66 16.66 0 1 1 8 31.27H354A13.44 13.44 0 0 1 340.71 176z" opacity=".25"/>
  <path d="M365.41 213.5a119.55 119.55 0 0 1-8-105.4l-.81.46A94.86 94.86 0 0 0 453 272l.81-.48a119.53 119.53 0 0 1-88.4-58.02z" class="cls-2"/>
  <path fill="#7ac0a0" d="M223.65 221.86a25.68 25.68 0 0 0-25.5-25.68V196a31.86 31.86 0 0 0-58.66-17.23 38.44 38.44 0 0 0-75.33 9 31.87 31.87 0 1 0-15.29 59.83h149.28a25.68 25.68 0 0 0 25.5-25.74z" opacity=".5"/>
  <path d="M48.06 83.19l3 6.06 6.69.98-4.84 4.72 1.14 6.66-5.99-3.14-5.98 3.14 1.14-6.66-4.84-4.72 6.69-.98 2.99-6.06zM253.26 185.24l3 6.06 6.69.98-4.84 4.72 1.14 6.66-5.99-3.14-5.98 3.14 1.14-6.66-4.84-4.72 6.69-.98 2.99-6.06z" class="cls-2"/>
  <path d="M208.64 114.8l4.81 9.73 10.74 1.56-7.78 7.57 1.84 10.7-9.61-5.05-9.6 5.05 1.83-10.7-7.77-7.57 10.74-1.56 4.8-9.73z" class="cls-4"/>
  <path d="M469.81 104.92l4.8 9.73 10.74 1.56-7.77 7.58 1.83 10.69-9.6-5.05-9.61 5.05 1.83-10.69-7.77-7.58 10.74-1.56 4.81-9.73z" class="cls-5"/>
  <path d="M100.01 385.83l4.8 9.74 10.74 1.56-7.77 7.57 1.83 10.7-9.6-5.05-9.61 5.05 1.84-10.7-7.77-7.57 10.73-1.56 4.81-9.74z" class="cls-2"/>
  <path d="M32.7 346.55l3 6.06 6.69.97-4.84 4.73 1.14 6.66-5.99-3.15-5.98 3.15 1.14-6.66-4.84-4.73 6.69-.97 2.99-6.06zM479.31 305.94l3 6.07 6.69.97-4.84 4.72 1.14 6.67-5.99-3.15-5.98 3.15 1.14-6.67-4.84-4.72 6.69-.97 2.99-6.07zM125.8 263.11l1.58 3.2 3.53.52-2.56 2.49.61 3.53-3.16-1.67-3.17 1.67.61-3.53-2.56-2.49 3.53-.52 1.59-3.2zM304.66 423.32l1.58 3.2 3.54.52-2.56 2.49.6 3.52-3.16-1.66-3.16 1.66.6-3.52-2.56-2.49 3.54-.52 1.58-3.2z" class="cls-5"/>
  <path d="M448.59 409.09l2.99 6.07 6.69.97-4.84 4.72 1.14 6.67-5.98-3.15-5.99 3.15 1.14-6.67-4.84-4.72 6.69-.97 3-6.07z" class="cls-4"/>
  <path fill="#7ac0a0" d="M435.64 354.83a45.24 45.24 0 0 0-44.91-45.23v-.35A56.13 56.13 0 0 0 287.4 278.9a67.7 67.7 0 0 0-132.67 15.8 56.13 56.13 0 1 0-26.94 105.38h263a45.24 45.24 0 0 0 44.85-45.25z"/>
</svg>
