<svg xmlns="http://www.w3.org/2000/svg" data-name="Camada 1" viewBox="0 0 500 500">
  <path fill="#62447f" d="M353.83 93.52a14 14 0 0 1 13.86-14v-.11a17.32 17.32 0 0 1 31.89-9.37A20.89 20.89 0 0 1 440.51 75a17.32 17.32 0 1 1 8.31 32.51h-81.14a14 14 0 0 1-13.85-13.99z" opacity=".25"/>
  <path fill="#62447f" d="M232.11 141.25a26.69 26.69 0 0 0-26.51-26.7v-.21a33.13 33.13 0 0 0-61-17.92 40 40 0 0 0-78.32 9.33A33.14 33.14 0 1 0 50.38 168H205.6a26.71 26.71 0 0 0 26.51-26.75z" opacity=".5"/>
  <path fill="#62447f" d="M469.65 262.39a47 47 0 0 0-46.7-47v-.36a58.35 58.35 0 0 0-107.44-31.56 70.4 70.4 0 0 0-138 16.43 58.36 58.36 0 1 0-28 109.57H423a47 47 0 0 0 46.65-47.08z"/>
  <path fill="#ffeec5" d="M280.32 320.84l9.15 77.73 26.87-19.04 29 58.47-3.53-93.56-35 23.23-26.49-46.83zm-173.2-150.61l-4.45 37.75-13.04-9.24-14.09 28.4 1.71-45.45 17 11.29 12.87-22.75z"/>
</svg>
